<svg width="640" height="480" xmlns="http://www.w3.org/2000/svg" xmlns:svg="http://www.w3.org/2000/svg">
    <!-- Created with SVG-edit - https://github.com/SVG-Edit/svgedit-->
    <g class="layer">
        <title>Layer 1</title>
        <path
            d="m185.74016,174.99999c-2.81177,6.89136 -4.23609,8.38638 -6.2361,9.67439c-1.9761,1.27262 -3.1167,2.72907 -3.90373,4.30157c-0.93434,1.86676 -1.14487,3.86516 -1.28225,5.6655c-0.11495,1.5065 -1.18732,3.58774 -2.48071,4.81511c-1.45681,1.38245 -3.81103,3.32359 -4.91823,4.43548c-1.11713,1.12184 -2.69377,2.79305 -4.33128,4.88829c-1.0297,1.31752 -2.26174,3.12589 -2.49979,4.86203c-0.24902,1.81614 -0.03044,3.80737 -0.03044,5.32312c0,2.26952 0,4.07518 0,5.93884c0,1.86363 0,3.54988 0,5.52742c0,1.55614 0,3.20548 0,5.26792c0,1.7394 -0.17186,3.75283 0.24349,5.49981c0.3999,1.68205 1.27114,3.19673 1.79971,4.86206c0.79309,2.49873 1.14374,3.98766 2.45028,5.73451c1.14069,1.52511 0.35191,3.68038 1.8463,5.27825c1.28281,1.37164 4.23009,1.34131 6.06585,2.33164c2.41544,1.30308 3.5685,2.99141 4.71607,4.63495c1.13516,1.62574 1.65371,3.25177 2.97253,5.1768c1.02774,1.50011 2.89354,2.45361 5.21162,3.46776c1.73248,0.75794 4.71093,1.67693 6.77925,2.22118c2.03349,0.53509 5.00732,1.14329 7.11213,2.22396c2.38048,1.22222 3.65558,2.59573 5.78761,3.43222c2.53053,0.99286 4.61317,1.32649 6.47532,2.05103c2.73387,1.06373 4.8052,2.65295 6.12202,3.61134c2.29139,1.6677 4.63416,2.43898 6.90953,2.83274c2.28721,0.39581 4.36106,1.27976 7.17584,1.72562c2.75834,0.43692 4.85022,0.17669 7.58305,0.17669c2.25577,0 4.89681,0 7.84509,0c2.07455,0 4.1605,0 7.16112,0c2.64531,0 4.96526,0 7.38798,0c2.98773,0 5.49509,0 6.91292,0c3.14944,0 4.87539,0 6.69835,0c1.91718,0 8.20275,0 10.45138,0c2.30001,0 4.63425,0 6.98564,0c2.35139,0 4.68563,0 6.98564,0c4.42881,0 6.53001,0.0018 8.56842,-0.00275c1.99852,-0.00446 3.97998,-0.01438 5.96692,-0.04038c2.01577,-0.02638 4.08309,-0.06518 6.22373,-0.13356c4.59767,-0.14686 7.08831,-0.27755 9.69086,-0.41139c2.68336,-0.13798 5.41427,-0.29227 8.16277,-0.44728c2.73431,-0.15419 5.4222,-0.31097 8.03441,-0.44728c4.86529,-0.25388 7.06428,-0.34026 9.09729,-0.41414c1.87277,-0.06806 3.5921,-0.11621 5.16216,-0.17394c2.71924,-0.09997 5.85301,-0.27284 7.99635,-0.73026c1.86354,-0.39771 4.95873,-1.03684 7.22774,-1.16377c2.71593,-0.15195 4.21598,-0.14418 7.40748,-0.16737c1.6669,-0.0121 5.07238,0.00126 8.48142,-0.01485c1.67613,-0.00793 3.32091,0.00212 6.45294,-0.14358c1.47253,-0.0685 5.41819,-0.42159 7.43082,-1.02983c2.59967,-0.78562 4.5604,-2.04004 6.73928,-2.91868c2.29409,-0.92509 4.12802,-1.32873 7.83316,-2.80477c1.02926,-0.41003 3.07803,-1.37711 5.11278,-2.37272c1.92972,-0.94423 5.00166,-2.52811 7.19343,-3.06292c2.37813,-0.5803 4.44466,-0.73683 6.68363,-1.49989c3.47749,-1.18516 5.10616,-2.21252 6.69652,-3.2469c1.53706,-0.99972 3.88061,-2.89823 4.9805,-4.32365c1.29435,-1.67747 2.74188,-3.07811 4.10494,-4.27775c1.8382,-1.61781 3.07498,-2.82746 3.88523,-4.54629c0.95855,-2.03337 0.88122,-3.52777 2.2448,-5.65994c0.87181,-1.36317 2.22878,-2.7212 3.49282,-4.17458c1.2239,-1.40725 3.0054,-3.87524 3.52234,-5.40249c0.72298,-2.13622 1.42907,-3.76531 2.16207,-5.29345c0.85204,-1.77624 1.26683,-3.76986 1.81678,-5.15749c0.6123,-1.54511 1.66089,-3.82304 1.83445,-5.67963c0.17643,-1.88727 0.0128,-3.54818 0.0128,-5.53504c0,-1.64309 0,-3.24896 0,-5.40628c0,-1.60135 0,-3.59753 0,-5.15367l0,-1.64935l0,-2.53765l0,-1.76562"
            fill="none" id="svg_1" stroke="#000000" stroke-width="5" />
        <path
            d="m247,133c0.98534,1.836 1.10913,2.63589 1.70534,3.60451c0.40465,0.65739 1.01799,1.54861 1.18033,2.35266c0.11247,0.55708 0.11299,1.44417 0.11433,2.64017c0.00096,0.86099 0,1.632 0,2.59283c0,0.9765 0,1.67783 0,2.38583c0,1.28783 0,2.0775 0,2.90317c0,0.80566 0,1.85416 0,2.78749c0,0.90001 0.03465,1.58527 -0.08533,2.42c-0.1445,1.00529 -0.43796,1.78621 -0.63068,2.54401c-0.28239,1.11049 -0.284,2.10266 -0.284,2.77467c0,0.74399 0,1.85165 0,2.68565c0,0.85068 0,1.85201 0,2.58101c0,0.83699 0,2.02783 0,2.62349c0,0.86852 0,1.93784 0,2.85783c0,0.76001 0,1.72585 0,2.65733c0,0.91084 0,1.8 0,2.78951c0,0.6105 0,1.48517 0,2.4825c0,0.79651 0.03183,1.98523 -0.01067,2.67734c-0.04274,0.69603 -0.26613,1.69675 -0.51016,2.68167c-0.17746,0.71623 -0.47595,1.7926 -0.67784,2.47032c-0.27611,0.92683 -0.60065,1.69978 -0.74417,2.67818c-0.14198,0.96782 -0.05544,1.64583 -0.05716,2.41116c-0.00226,0.99867 0.01195,1.81691 -0.284,2.79733c-0.23657,0.78375 -0.66333,1.71446 -0.71468,2.48534c-0.06258,0.93951 -0.29977,1.98572 -0.85199,2.48c-0.77089,0.69 -1.13867,1.3078 -1.14934,2.17867c-0.01172,0.95726 0,1.68933 0,2.65651c0,0.85416 0,1.8555 0,2.49815c0,1.05901 0,2.136 0,2.81467c0,0.92551 0,1.716 0,2.68718c0,0.85416 0,1.85416 0,2.48749c0,1.01251 0,1.98001 0,2.79901c0,0.90533 0,1.91432 0,2.71432l0,0.99983l0,0.77934"
            fill="none" id="svg_2" stroke="#000000" stroke-width="5" />
        <path
            d="m377,131c1.88568,2.03233 1.97226,2.6245 1.991,3.33766c0.03491,1.32858 0.009,2.39967 0.009,2.97751c0,0.59683 0,1.8195 0,2.43134c0,0.60283 0,2.29016 0,2.80682c0,1.01334 0,1.53 0,2.63333c0,0.60667 0,1.98001 0,2.7635c0,0.8445 0,1.741 0,2.6805c0,0.97351 0,1.972 0,2.98651c0,1.0215 0,3.0495 0,4.03915c0,0.96767 0,1.91135 0,2.82901c0,0.88966 0,1.74933 0,2.577c0,0.79367 0,2.271 0,2.95233c0,0.64934 0,1.27467 0,1.884c0,0.60133 0,1.20267 0,1.812c0,0.62534 0,1.95601 0,2.675c0,0.75301 0,1.534 0,2.33701c0,0.819 0,1.64799 0,2.48099c0,0.83101 0,2.46301 0,3.2525c0,0.76651 0,1.507 0,2.21851c0,0.6795 0,1.32401 0,2.496c0,0.996 0,2.1525 0,2.76683c0,0.82651 0,2.0305 0,2.71317c0,0.69867 0,2.01601 0,2.83501c0,0.69299 0,1.71432 0,2.51433c0,1 0,1.78934 0,2.83333c0,0.79201 0,1.65067 0,2.51401c0,1.01666 0.1041,1.87813 -0.16666,2.81934c-0.20331,0.70673 -0.57813,1.30504 -1.15485,2.25482c-0.50003,0.82347 -0.88818,1.38982 -1.27982,1.97984c-0.59689,0.89931 -1.18991,1.76953 -1.52667,2.32666c-0.55984,0.92619 -0.85068,1.85066 -0.87201,2.69334l0,0.91199l0,0.94934l0,0.57466"
            fill="none" id="svg_3" stroke="#000000" stroke-width="5" />
    </g>
</svg>